<svg width="32" height="32" viewBox="0 0 32 32" fill="none" xmlns="http://www.w3.org/2000/svg">
<path d="M13.2533 15.1868C12.4933 15.1868 11.8933 15.8534 11.8933 16.6668C11.8933 17.4801 12.5067 18.1468 13.2533 18.1468C14.0133 18.1468 14.6133 17.4801 14.6133 16.6668C14.6267 15.8534 14.0133 15.1868 13.2533 15.1868ZM18.12 15.1868C17.36 15.1868 16.76 15.8534 16.76 16.6668C16.76 17.4801 17.3733 18.1468 18.12 18.1468C18.88 18.1468 19.48 17.4801 19.48 16.6668C19.48 15.8534 18.88 15.1868 18.12 15.1868Z" fill="#CDCDCD"/>
<path d="M24.6 4H6.73333C5.22667 4 4 5.22667 4 6.74667V24.7733C4 26.2933 5.22667 27.52 6.73333 27.52H21.8533L21.1467 25.0533L22.8533 26.64L24.4667 28.1333L27.3333 30.6667V6.74667C27.3333 5.22667 26.1067 4 24.6 4ZM19.4533 21.4133C19.4533 21.4133 18.9733 20.84 18.5733 20.3333C20.32 19.84 20.9867 18.7467 20.9867 18.7467C20.44 19.1067 19.92 19.36 19.4533 19.5333C18.7867 19.8133 18.1467 20 17.52 20.1067C16.24 20.3467 15.0667 20.28 14.0667 20.0933C13.3067 19.9467 12.6533 19.7333 12.1067 19.52C11.8 19.4 11.4667 19.2533 11.1333 19.0667C11.0933 19.04 11.0533 19.0267 11.0133 19C10.9867 18.9867 10.9733 18.9733 10.96 18.96C10.72 18.8267 10.5867 18.7333 10.5867 18.7333C10.5867 18.7333 11.2267 19.8 12.92 20.3067C12.52 20.8133 12.0267 21.4133 12.0267 21.4133C9.08 21.32 7.96 19.3867 7.96 19.3867C7.96 15.0933 9.88 11.6133 9.88 11.6133C11.8 10.1733 13.6267 10.2133 13.6267 10.2133L13.76 10.3733C11.36 11.0667 10.2533 12.12 10.2533 12.12C10.2533 12.12 10.5467 11.96 11.04 11.7333C12.4667 11.1067 13.6 10.9333 14.0667 10.8933C14.1467 10.88 14.2133 10.8667 14.2933 10.8667C15.1067 10.76 16.0267 10.7333 16.9867 10.84C18.2533 10.9867 19.6133 11.36 21 12.12C21 12.12 19.9467 11.12 17.68 10.4267L17.8667 10.2133C17.8667 10.2133 19.6933 10.1733 21.6133 11.6133C21.6133 11.6133 23.5333 15.0933 23.5333 19.3867C23.5333 19.3867 22.4 21.32 19.4533 21.4133Z" fill="#CDCDCD"/>
</svg>
