<svg width="32" height="32" viewBox="0 0 32 32" fill="none" xmlns="http://www.w3.org/2000/svg">
<path d="M16.0044 2.6665C10.4378 2.6665 8.80983 2.67225 8.49337 2.69851C7.35103 2.79349 6.64018 2.9734 5.86577 3.35908C5.26896 3.65551 4.79827 3.99913 4.33375 4.48081C3.48775 5.35925 2.97503 6.43996 2.78942 7.72458C2.69918 8.34823 2.67293 8.47542 2.6676 11.6609C2.66555 12.7228 2.6676 14.1202 2.6676 15.9946C2.6676 21.5582 2.67375 23.185 2.70041 23.5009C2.7927 24.6128 2.96703 25.3124 3.33619 26.0776C4.0417 27.5423 5.38914 28.6419 6.97653 29.0522C7.52617 29.1937 8.13324 29.2717 8.91258 29.3086C9.24277 29.323 12.6083 29.3332 15.9759 29.3332C19.3434 29.3332 22.711 29.3291 23.033 29.3127C23.9354 29.2702 24.4594 29.1999 25.0388 29.0501C25.8259 28.8482 26.5594 28.4769 27.1882 27.962C27.8169 27.4472 28.3258 26.8013 28.6791 26.0693C29.0411 25.3226 29.2247 24.5964 29.3077 23.5426C29.3258 23.3128 29.3334 19.6495 29.3334 15.9911C29.3334 12.3322 29.3251 8.67564 29.3071 8.44587C29.223 7.37501 29.0395 6.65495 28.6658 5.89386C28.3592 5.27083 28.0187 4.80556 27.5245 4.32983C26.6426 3.48709 25.5638 2.97422 24.2781 2.78877C23.6552 2.69871 23.5312 2.67204 20.3441 2.6665H16.0044Z" fill="url(#paint0_radial_1_1428)"/>
<path d="M16.0044 2.6665C10.4378 2.6665 8.80983 2.67225 8.49337 2.69851C7.35103 2.79349 6.64018 2.9734 5.86577 3.35908C5.26896 3.65551 4.79827 3.99913 4.33375 4.48081C3.48775 5.35925 2.97503 6.43996 2.78942 7.72458C2.69918 8.34823 2.67293 8.47542 2.6676 11.6609C2.66555 12.7228 2.6676 14.1202 2.6676 15.9946C2.6676 21.5582 2.67375 23.185 2.70041 23.5009C2.7927 24.6128 2.96703 25.3124 3.33619 26.0776C4.0417 27.5423 5.38914 28.6419 6.97653 29.0522C7.52617 29.1937 8.13324 29.2717 8.91258 29.3086C9.24277 29.323 12.6083 29.3332 15.9759 29.3332C19.3434 29.3332 22.711 29.3291 23.033 29.3127C23.9354 29.2702 24.4594 29.1999 25.0388 29.0501C25.8259 28.8482 26.5594 28.4769 27.1882 27.962C27.8169 27.4472 28.3258 26.8013 28.6791 26.0693C29.0411 25.3226 29.2247 24.5964 29.3077 23.5426C29.3258 23.3128 29.3334 19.6495 29.3334 15.9911C29.3334 12.3322 29.3251 8.67564 29.3071 8.44587C29.223 7.37501 29.0395 6.65495 28.6658 5.89386C28.3592 5.27083 28.0187 4.80556 27.5245 4.32983C26.6426 3.48709 25.5638 2.97422 24.2781 2.78877C23.6552 2.69871 23.5312 2.67204 20.3441 2.6665H16.0044Z" fill="url(#paint1_radial_1_1428)"/>
<path d="M15.9986 6.1543C13.3251 6.1543 12.9895 6.16599 11.9395 6.21379C10.8915 6.26179 10.1761 6.42776 9.55018 6.67126C8.90271 6.92277 8.35348 7.25921 7.8063 7.80674C7.25871 8.35407 6.92236 8.90345 6.6701 9.55089C6.42605 10.1772 6.25992 10.8929 6.21275 11.9408C6.16599 12.9912 6.15369 13.327 6.15369 16.0013C6.15369 18.6755 6.16558 19.0101 6.21316 20.0605C6.26136 21.1088 6.42728 21.8243 6.67051 22.4504C6.92216 23.0981 7.2585 23.6475 7.80589 24.1948C8.35286 24.7425 8.90209 25.0798 9.54915 25.3313C10.1755 25.5748 10.8911 25.7408 11.9389 25.7888C12.9889 25.8366 13.3242 25.8483 15.9976 25.8483C18.6713 25.8483 19.0058 25.8366 20.0559 25.7888C21.1039 25.7408 21.8201 25.5748 22.4464 25.3313C23.0937 25.0798 23.6421 24.7425 24.1891 24.1948C24.7366 23.6475 25.073 23.0981 25.3253 22.4506C25.5673 21.8243 25.7334 21.1086 25.7826 20.0607C25.8298 19.0103 25.8421 18.6755 25.8421 16.0013C25.8421 13.327 25.8298 12.9914 25.7826 11.941C25.7334 10.8927 25.5673 10.1772 25.3253 9.55109C25.073 8.90345 24.7366 8.35407 24.1891 7.80674C23.6415 7.259 23.0939 6.92257 22.4458 6.67126C21.8182 6.42776 21.1025 6.26179 20.0545 6.21379C19.0044 6.16599 18.6701 6.1543 15.9957 6.1543H15.9986ZM15.1155 7.9288C15.3776 7.92839 15.67 7.9288 15.9986 7.9288C18.627 7.9288 18.9386 7.93824 19.9765 7.98542C20.9363 8.02933 21.4573 8.18975 21.8043 8.32453C22.2637 8.50301 22.5912 8.71636 22.9356 9.061C23.2801 9.40565 23.4934 9.73388 23.6722 10.1934C23.807 10.5401 23.9676 11.0612 24.0112 12.0212C24.0584 13.0593 24.0687 13.3711 24.0687 15.999C24.0687 18.6269 24.0584 18.9388 24.0112 19.9768C23.9674 20.9369 23.807 21.4579 23.6722 21.8046C23.4938 22.2642 23.2801 22.5914 22.9356 22.9358C22.591 23.2804 22.2639 23.4938 21.8043 23.6723C21.4577 23.8077 20.9363 23.9677 19.9765 24.0116C18.9388 24.0588 18.627 24.069 15.9986 24.069C13.37 24.069 13.0584 24.0588 12.0207 24.0116C11.0609 23.9673 10.5399 23.8069 10.1927 23.6721C9.73332 23.4936 9.40518 23.2802 9.06063 22.9356C8.71608 22.591 8.50278 22.2635 8.32394 21.8038C8.1892 21.4571 8.02862 20.936 7.98493 19.976C7.93776 18.9379 7.92833 18.6261 7.92833 15.9966C7.92833 13.367 7.93776 13.0568 7.98493 12.0188C8.02882 11.0587 8.1892 10.5376 8.32394 10.1905C8.50237 9.73101 8.71608 9.40277 9.06063 9.05813C9.40518 8.71349 9.73332 8.50013 10.1927 8.32125C10.5397 8.18585 11.0609 8.02584 12.0207 7.98173C12.9288 7.9407 13.2808 7.92839 15.1155 7.92634V7.9288ZM21.2534 9.56381C21.0197 9.56381 20.7913 9.63312 20.5971 9.76298C20.4028 9.89284 20.2514 10.0774 20.162 10.2934C20.0726 10.5093 20.0492 10.7469 20.0948 10.9761C20.1404 11.2054 20.253 11.4159 20.4182 11.5811C20.5835 11.7464 20.794 11.8589 21.0232 11.9044C21.2524 11.95 21.4899 11.9265 21.7058 11.837C21.9216 11.7475 22.1061 11.596 22.2358 11.4016C22.3656 11.2073 22.4348 10.9788 22.4347 10.745C22.4347 10.0927 21.9056 9.5634 21.2534 9.5634V9.56381ZM15.9986 10.9444C13.2067 10.9444 10.9431 13.2086 10.9431 16.0013C10.9431 18.7939 13.2067 21.0571 15.9986 21.0571C18.7905 21.0571 21.0534 18.7939 21.0534 16.0013C21.0534 13.2086 18.7903 10.9444 15.9984 10.9444H15.9986ZM15.9986 12.7189C17.8108 12.7189 19.28 14.1884 19.28 16.0013C19.28 17.8139 17.8108 19.2836 15.9986 19.2836C14.1862 19.2836 12.7172 17.8139 12.7172 16.0013C12.7172 14.1884 14.1862 12.7189 15.9986 12.7189Z" fill="white"/>
<defs>
<radialGradient id="paint0_radial_1_1428" cx="0" cy="0" r="1" gradientUnits="userSpaceOnUse" gradientTransform="translate(9.75005 31.3871) rotate(-90) scale(26.4287 24.5807)">
<stop stop-color="#FFDD55"/>
<stop offset="0.1" stop-color="#FFDD55"/>
<stop offset="0.5" stop-color="#FF543E"/>
<stop offset="1" stop-color="#C837AB"/>
</radialGradient>
<radialGradient id="paint1_radial_1_1428" cx="0" cy="0" r="1" gradientUnits="userSpaceOnUse" gradientTransform="translate(-1.80012 4.58753) rotate(78.6807) scale(11.8137 48.6966)">
<stop stop-color="#3771C8"/>
<stop offset="0.128" stop-color="#3771C8"/>
<stop offset="1" stop-color="#6600FF" stop-opacity="0"/>
</radialGradient>
</defs>
</svg>
