<svg width="44" height="44" viewBox="0 0 44 44" fill="none" xmlns="http://www.w3.org/2000/svg">
<path d="M20.1667 20.1667V12.8334H23.8333V20.1667H31.1667V23.8334H23.8333V31.1667H20.1667V23.8334H12.8333V20.1667H20.1667ZM22 40.3334C11.8745 40.3334 3.66666 32.1255 3.66666 22C3.66666 11.8745 11.8745 3.66669 22 3.66669C32.1255 3.66669 40.3333 11.8745 40.3333 22C40.3333 32.1255 32.1255 40.3334 22 40.3334ZM22 36.6667C25.8898 36.6667 29.6204 35.1215 32.3709 32.3709C35.1214 29.6204 36.6667 25.8899 36.6667 22C36.6667 18.1102 35.1214 14.3797 32.3709 11.6291C29.6204 8.87859 25.8898 7.33335 22 7.33335C18.1101 7.33335 14.3796 8.87859 11.6291 11.6291C8.87856 14.3797 7.33332 18.1102 7.33332 22C7.33332 25.8899 8.87856 29.6204 11.6291 32.3709C14.3796 35.1215 18.1101 36.6667 22 36.6667Z" fill="white"/>
</svg>
