<svg width="32" height="32" viewBox="0 0 32 32" fill="none" xmlns="http://www.w3.org/2000/svg">
<path d="M16 29.3334C23.3638 29.3334 29.3333 23.3639 29.3333 16.0001C29.3333 8.63628 23.3638 2.66675 16 2.66675C8.6362 2.66675 2.66666 8.63628 2.66666 16.0001C2.66666 23.3639 8.6362 29.3334 16 29.3334Z" fill="url(#paint0_linear_1_1442)"/>
<path d="M8.21579 15.8845L17.1946 12.1851C18.0809 11.7997 21.0867 10.5666 21.0867 10.5666C21.0867 10.5666 22.474 10.0271 22.3584 11.3373C22.3198 11.8768 22.0116 13.765 21.7033 15.8074L20.7399 21.8575C20.7399 21.8575 20.6628 22.7438 20.0077 22.898C19.3526 23.0521 18.2736 22.3585 18.0809 22.2043C17.9268 22.0887 15.1907 20.3546 14.1888 19.5068C13.9191 19.2756 13.6108 18.8132 14.2274 18.2737C15.6146 17.002 17.2717 15.4221 18.2736 14.4201C18.736 13.9577 19.1985 12.8787 17.2717 14.1889L11.8381 17.8498C11.8381 17.8498 11.2216 18.2352 10.0655 17.8883C8.90943 17.5415 7.56069 17.0791 7.56069 17.0791C7.56069 17.0791 6.63583 16.5011 8.21579 15.8845Z" fill="white"/>
<defs>
<linearGradient id="paint0_linear_1_1442" x1="20.4455" y1="7.11222" x2="13.7788" y2="22.6667" gradientUnits="userSpaceOnUse">
<stop stop-color="#C4C4C4"/>
<stop offset="1" stop-color="#9B9B9B"/>
</linearGradient>
</defs>
</svg>
