<svg width="32" height="32" viewBox="0 0 32 32" fill="none" xmlns="http://www.w3.org/2000/svg">
<path d="M11.053 27.0054C21.1164 27.0054 26.6197 18.6684 26.6197 11.4388C26.6197 11.202 26.6149 10.9663 26.6042 10.7316C27.675 9.9568 28.5991 8.99745 29.3333 7.8985C28.353 8.33429 27.2981 8.62761 26.1915 8.75987C27.321 8.08248 28.1882 7.01108 28.5973 5.73378C27.5233 6.37094 26.3484 6.82006 25.1232 7.06182C24.1248 5.99839 22.7035 5.33325 21.1296 5.33325C18.1082 5.33325 15.6582 7.78342 15.6582 10.8036C15.6582 11.2329 15.7062 11.6506 15.8001 12.0511C11.253 11.8223 7.22088 9.64523 4.52239 6.33485C4.03638 7.16972 3.78072 8.11866 3.78155 9.0847C3.78155 10.9828 4.74744 12.6585 6.21624 13.6388C5.34744 13.6123 4.49769 13.3776 3.73842 12.9545C3.73761 12.9775 3.73761 12.9999 3.73761 13.0244C3.73761 15.6741 5.6235 17.8863 8.12691 18.3876C7.65672 18.5156 7.17156 18.5804 6.68424 18.5801C6.33913 18.5799 5.99483 18.5469 5.65598 18.4814C6.35252 20.6553 8.37227 22.2372 10.7669 22.2814C8.89432 23.7491 6.53543 24.6233 3.97171 24.6233C3.53064 24.6233 3.09494 24.5982 2.66667 24.5476C5.08802 26.0996 7.96315 27.0052 11.0533 27.0052" fill="#D5D5D5"/>
</svg>
